<svg width="92" height="48" viewBox="0 0 92 48" fill="none" xmlns="http://www.w3.org/2000/svg">
<rect width="92" height="48" rx="24" fill="white"/>
<rect x="4" y="4" width="40" height="40" rx="20" fill="url(#paint0_linear_20166_62877)"/>
<path d="M17.0574 29L21.1694 17.8H22.9134L27.0254 29H25.3134L22.0334 19.72L18.7374 29H17.0574ZM18.9134 26.232L19.3614 24.952H24.6254L25.0734 26.232H18.9134ZM28.6211 29V17.8H30.2211V29H28.6211Z" fill="white"/>
<path d="M61.1071 17.448C61.7051 15.698 64.1231 15.645 64.8321 17.289L64.8921 17.449L65.6991 19.809C65.884 20.3502 66.1829 20.8455 66.5755 21.2614C66.9682 21.6773 67.4454 22.0042 67.9751 22.22L68.1921 22.301L70.5521 23.107C72.3021 23.705 72.3551 26.123 70.7121 26.832L70.5521 26.892L68.1921 27.699C67.6507 27.8838 67.1552 28.1826 66.7391 28.5753C66.323 28.9679 65.996 29.4452 65.7801 29.975L65.6991 30.191L64.8931 32.552C64.2951 34.302 61.8771 34.355 61.1691 32.712L61.1071 32.552L60.3011 30.192C60.1163 29.6506 59.8175 29.1551 59.4248 28.739C59.0322 28.3229 58.5549 27.9959 58.0251 27.78L57.8091 27.699L55.4491 26.893C53.6981 26.295 53.6451 23.877 55.2891 23.169L55.4491 23.107L57.8091 22.301C58.3503 22.1161 58.8456 21.8172 59.2615 21.4246C59.6774 21.0319 60.0043 20.5547 60.2201 20.025L60.3011 19.809L61.1071 17.448ZM71.0001 14C71.1872 14 71.3705 14.0525 71.5293 14.1515C71.688 14.2505 71.8158 14.392 71.8981 14.56L71.9461 14.677L72.2961 15.703L73.3231 16.053C73.5106 16.1167 73.6749 16.2346 73.7953 16.3918C73.9157 16.549 73.9867 16.7384 73.9994 16.936C74.012 17.1336 73.9657 17.3305 73.8663 17.5018C73.7669 17.673 73.6189 17.8109 73.4411 17.898L73.3231 17.946L72.2971 18.296L71.9471 19.323C71.8833 19.5104 71.7653 19.6747 71.608 19.795C71.4508 19.9153 71.2613 19.9862 71.0637 19.9987C70.8661 20.0113 70.6693 19.9648 70.4981 19.8654C70.3269 19.7659 70.1891 19.6179 70.1021 19.44L70.0541 19.323L69.7041 18.297L68.6771 17.947C68.4896 17.8833 68.3253 17.7654 68.2049 17.6082C68.0845 17.451 68.0135 17.2616 68.0008 17.064C67.9882 16.8664 68.0345 16.6695 68.1339 16.4982C68.2333 16.327 68.3813 16.1891 68.5591 16.102L68.6771 16.054L69.7031 15.704L70.0531 14.677C70.1205 14.4794 70.2481 14.3079 70.4179 14.1865C70.5878 14.0651 70.7913 13.9999 71.0001 14Z" fill="#429EFF"/>
<defs>
<linearGradient id="paint0_linear_20166_62877" x1="8.44444" y1="44" x2="44" y2="10.6667" gradientUnits="userSpaceOnUse">
<stop stop-color="#429EFF"/>
<stop offset="0.41" stop-color="#33CFFF"/>
<stop offset="1" stop-color="#9F87FF"/>
</linearGradient>
</defs>
</svg>
