<svg width="54" height="54" viewBox="0 0 54 54" fill="none" xmlns="http://www.w3.org/2000/svg">
<g filter="url(#filter0_dd_20166_62894)">
<rect x="4.5" y="2.5" width="45" height="45" rx="22.5" stroke="white" shape-rendering="crispEdges"/>
<g clip-path="url(#clip0_20166_62894)">
<path d="M21.75 23.5C20.925 23.5 20.25 24.175 20.25 25C20.25 25.825 20.925 26.5 21.75 26.5C22.575 26.5 23.25 25.825 23.25 25C23.25 24.175 22.575 23.5 21.75 23.5ZM32.25 23.5C31.425 23.5 30.75 24.175 30.75 25C30.75 25.825 31.425 26.5 32.25 26.5C33.075 26.5 33.75 25.825 33.75 25C33.75 24.175 33.075 23.5 32.25 23.5ZM27 23.5C26.175 23.5 25.5 24.175 25.5 25C25.5 25.825 26.175 26.5 27 26.5C27.825 26.5 28.5 25.825 28.5 25C28.5 24.175 27.825 23.5 27 23.5Z" fill="white"/>
</g>
</g>
<defs>
<filter id="filter0_dd_20166_62894" x="0" y="0" width="54" height="54" filterUnits="userSpaceOnUse" color-interpolation-filters="sRGB">
<feFlood flood-opacity="0" result="BackgroundImageFix"/>
<feColorMatrix in="SourceAlpha" type="matrix" values="0 0 0 0 0 0 0 0 0 0 0 0 0 0 0 0 0 0 127 0" result="hardAlpha"/>
<feOffset dy="2"/>
<feGaussianBlur stdDeviation="2"/>
<feComposite in2="hardAlpha" operator="out"/>
<feColorMatrix type="matrix" values="0 0 0 0 0 0 0 0 0 0 0 0 0 0 0 0 0 0 0.2 0"/>
<feBlend mode="normal" in2="BackgroundImageFix" result="effect1_dropShadow_20166_62894"/>
<feColorMatrix in="SourceAlpha" type="matrix" values="0 0 0 0 0 0 0 0 0 0 0 0 0 0 0 0 0 0 127 0" result="hardAlpha"/>
<feOffset/>
<feGaussianBlur stdDeviation="0.5"/>
<feComposite in2="hardAlpha" operator="out"/>
<feColorMatrix type="matrix" values="0 0 0 0 0 0 0 0 0 0 0 0 0 0 0 0 0 0 0.1 0"/>
<feBlend mode="normal" in2="effect1_dropShadow_20166_62894" result="effect2_dropShadow_20166_62894"/>
<feBlend mode="normal" in="SourceGraphic" in2="effect2_dropShadow_20166_62894" result="shape"/>
</filter>
<clipPath id="clip0_20166_62894">
<rect width="18" height="18" fill="white" transform="translate(18 16)"/>
</clipPath>
</defs>
</svg>
